<svg xmlns="http://www.w3.org/2000/svg" width="48" height="30" viewBox="0 0 48 30">
    <g fill="#D6DAD6" fill-rule="nonzero">
        <path d="M34.831 10.014l1.31-3.591.437-1.508.492 1.508 1.31 3.591h-3.549zM38.493.507c-.606-.127-1.14-.14-1.775-.14-.605 0-1.267.027-1.873.14l-5.83 15.423c.534.197 1.21.267 1.915.267.535 0 1.112-.028 1.648-.098l1.112-3.085h5.789l1.113 3.085c.408.07.901.126 1.338.126.802 0 1.577-.126 2.338-.295L38.493.507zM23.507 16.549c2.775 0 4.324-.83 5.254-1.577-.24-1.409-.831-2.254-1.972-2.916-.719.62-1.606 1.085-3.127 1.085-2.507 0-4.253-1.873-4.253-4.831 0-3.042 1.718-4.86 4.352-4.86 1.014 0 1.845.268 2.746.902 1.042-.563 1.803-1.746 1.972-2.845C27.423.662 25.845 0 23.662 0c-4.817 0-8.183 3.45-8.183 8.31-.014 4.859 3.084 8.24 8.028 8.24zM14.141 3.79a7.363 7.363 0 0 0 .169-1.648c0-.535-.042-1.099-.17-1.634H3.959v15.592c.605.098 1.197.169 1.803.169.605 0 1.21-.07 1.816-.17v-5.492h5.86c.126-.536.14-1.07.14-1.606 0-.535-.028-1.07-.14-1.606h-5.86V3.79h6.564zM45.127 27.028c-1.155 0-1.93-.76-1.93-2.028 0-1.24.831-2.028 1.958-2.028.521 0 .944.07 1.31.31v3.507c-.409.183-.845.253-1.338.24zm1.803-6.986c-.155 0-.296.014-.451.042v2.268c-.366-.169-.747-.253-1.31-.253-1.591 0-2.915 1.126-2.915 2.93 0 1.83 1.253 2.858 2.887 2.858.83 0 1.732-.24 2.282-.549v-7.254a3.037 3.037 0 0 0-.493-.042zm-9.803 4.45c.098-.844.704-1.562 1.662-1.562 1.07 0 1.465.817 1.465 1.563h-3.127zm4.112.03c0-1.423-1.028-2.423-2.436-2.423-1.493 0-2.648 1.225-2.648 2.915 0 1.76 1.127 2.887 2.732 2.887 1.029 0 1.705-.422 2.155-.788a1.08 1.08 0 0 0-.507-.634c-.296.24-.718.563-1.62.563-1 0-1.69-.76-1.76-1.76h4.07c0-.324.014-.465.014-.76zm-6.126 2.112c-.17.155-.606.422-1.043.422-.591 0-1.056-.21-1.056-1.197v-2.803h2.17c.027-.14.041-.24.041-.38 0-.127-.014-.24-.042-.366h-2.169V20.83a2.438 2.438 0 0 0-.915 0v1.479h-.944a1.628 1.628 0 0 0 0 .746h.944v2.986c0 1.31.802 1.831 1.901 1.831.676 0 1.24-.31 1.535-.577a1.173 1.173 0 0 0-.422-.662zm-8.648-.564c0-.633.535-.873 1.296-.873.563 0 1.084.099 1.52.296v1.338a4.334 4.334 0 0 1-1.408.225c-.943 0-1.408-.394-1.408-.986zm1.352-3.971c-.93 0-1.733.394-2.085.746a.894.894 0 0 0 .48.634c.337-.254.9-.493 1.563-.493.957 0 1.493.436 1.493 1.267v.423c-.395-.169-.916-.282-1.521-.282-1.282 0-2.254.634-2.254 1.747 0 1.014.69 1.775 2.352 1.775.86 0 1.831-.254 2.338-.536v-3.155c.014-1.535-1.042-2.126-2.366-2.126zm-4.127 5.676c.155 0 .324-.014.479-.043V20.1a2.71 2.71 0 0 0-.944 0v7.633c.17.029.324.043.465.043zm-2.662-5.55c-.155 0-.31.014-.479.043v4.507a3.75 3.75 0 0 1-1.366.24c-1.366 0-1.605-.62-1.605-1.663v-3.084a2.591 2.591 0 0 0-.944 0v3.479c0 1.31.76 2.154 2.324 2.154 1.112 0 1.859-.239 2.52-.535v-5.084c-.14-.057-.295-.057-.45-.057zm-8.211 4.55c-1.17 0-1.958-.69-1.958-1.874 0-1.154.803-1.957 1.958-1.957.493 0 .958.14 1.225.366v3.056c-.267.211-.605.409-1.225.409zm0-4.676c-1.69 0-2.93 1.183-2.93 2.817 0 1.675 1.296 2.69 2.845 2.69.507 0 .944-.141 1.31-.324v.31c0 .887-.507 1.577-1.676 1.577-.887 0-1.422-.338-1.788-.76-.31.126-.522.408-.606.633.563.648 1.422.958 2.394.958 1.564 0 2.62-1.042 2.62-2.423V22.79c-.564-.423-1.366-.69-2.17-.69zm-8.028 2.394c.098-.845.704-1.563 1.662-1.563 1.07 0 1.464.817 1.464 1.563H4.79zm4.098.028c0-1.422-1.028-2.422-2.436-2.422-1.493 0-2.648 1.225-2.648 2.915 0 1.76 1.127 2.887 2.732 2.887 1.028 0 1.704-.422 2.155-.788a1.08 1.08 0 0 0-.507-.634c-.296.24-.718.563-1.62.563-1 0-1.69-.76-1.76-1.76h4.07c0-.324.014-.465.014-.76zm-5.507-2.24a3.45 3.45 0 0 0-1.169-.182c-.901 0-1.76.366-2.211.746v4.887a2.757 2.757 0 0 0 .958 0v-4.479c.296-.183.718-.281 1.197-.281.338 0 .704.028 1 .112a1.2 1.2 0 0 0 .225-.802z"/>
    </g>
</svg>
