<svg xmlns="http://www.w3.org/2000/svg" width="168" height="38" viewBox="0 0 168 38">
    <path fill="#053F33" fill-rule="evenodd" d="M50.558 1.226h7.877l-9.902 35.548h-9.405l-6.369-24.907c-.205-.916-.381-1.933-.435-2.628h-.143c-.054.695-.23 1.712-.436 2.628l-.002-.005-6.365 24.912h-9.405l-2.64-9.493H0v-5.946h11.676l-1.641-5.893H0V9.509h8.382L6.075 1.226h7.877L18.88 18.83a62.758 62.758 0 0 1 1.539 7.012l.006.041h.144c.14-1.32.485-2.64.702-3.762l5.421-20.895h11.116l5.426 20.91c.217 1.122.562 2.442.703 3.762h.143l.007-.04a62.786 62.786 0 0 1 1.538-7.013l4.933-17.62zm12.746 35.548V1.226h8.522v35.548h-8.522zM77.913 1.226h20.696v7.057H85.703v28.491h-7.79V1.226zm53.8 10.014c.654 2.204.983 4.559.983 7.064l-.043 4.33h-23.965c.089 2.39.808 4.329 2.16 5.814 1.446 1.59 3.922 2.384 6.768 2.384 2.17 0 4.107-.46 5.487-1.382 1.377-.92 2.61-2.095 3.695-3.524l4.678 5.374c-1.448 2.095-3.424 3.734-5.932 4.92-2.51 1.186-5.578 1.78-8.877 1.78-2.621 0-5.124-.452-7.181-1.357-2.057-.905-3.797-2.18-5.22-3.828-1.423-1.646-2.52-3.642-3.288-5.985-.77-2.343-1.152-4.977-1.152-7.9 0-2.876.373-5.474 1.118-7.795.745-2.319 1.819-4.303 3.22-5.95 1.4-1.646 3.12-2.923 5.153-3.828C111.35.452 113.819 0 116.397 0c2.755 0 5.316.487 7.35 1.461 2.033.975 3.706 2.297 5.017 3.968 1.31 1.67 2.294 3.608 2.948 5.81zm-7.328 4.114v-.186c0-2.506-.678-3.844-2.034-5.422-1.355-1.576-3.514-2.478-5.818-2.478-2.307 0-4.465.906-5.821 2.483-1.356 1.578-2.034 2.916-2.034 5.421v.182h15.707zm8.31 21.42l12.426-18.093-12.087-17.455h10.173l7.488 11.732h.28l7.414-11.732h9.476l-12.292 17.591L168 36.774h-10.173l-7.69-12.302h-.278l-7.687 12.302h-9.476z"/>
</svg>
