<svg xmlns="http://www.w3.org/2000/svg" width="75" height="30" viewBox="0 0 75 30">
    <g fill="#D6DAD6" fill-rule="evenodd">
        <path fill-rule="nonzero" d="M31.425.005c.196-.027.285.058.363.23.86 1.906 1.724 3.811 2.593 5.714 1.128 2.482 2.25 4.968 3.39 7.445.13.284.115.458-.106.694-.943 1.01-1.855 2.05-2.792 3.065a1.251 1.251 0 0 1-.518.32c-1.519.49-3.04.97-4.568 1.433a.79.79 0 0 1-.582-.095 25.283 25.283 0 0 1-1.791-1.278c-.133-.104-.199-.353-.206-.54-.025-.62-.01-1.241-.01-1.925-.198.046-.35.07-.5.118-.963.31-1.934.49-2.96.398-2.036-.184-3.189-2.04-2.379-3.893.38-.87 1.13-1.252 2.022-1.418 1.053-.195 2.036.058 2.996.47.155.07.315.121.521.2.017-.202.039-.346.04-.492.003-.694 0-1.388 0-2.081 0-.204-.046-.353-.281-.412-2.317-.582-4.61-.594-6.815.417-1.56.716-2.632 1.89-2.926 3.607-.468 2.729.886 4.888 3.58 5.767.506.165 1.042.239 1.562.365.13.032.296.07.368.163.586.763 1.153 1.535 1.764 2.355-.39.129-.726.245-1.066.35-4.512 1.405-9.029 2.806-13.549 4.206-.793.245-.787.236-1.075-.536-.748-2.012-1.503-4.024-2.264-6.036-.19-.507-.164-.543.39-.544h2.982c.421 0 .456-.04.454-.464 0-.751 0-1.503-.019-2.254-.007-.292.088-.359.387-.353 1.412.027 2.803-.082 4.071-.797 1.523-.86 2.135-2.538 1.51-4.139-.38-.977-1.18-1.486-2.117-1.833-.953-.353-1.954-.459-2.957-.486-1.507-.04-3.015-.027-4.523-.035-.426 0-.459.032-.459.446v8.672c0 .15-.026.303-.04.454l-.15.013C3.845 12.151 1.931 7.007 0 1.821L31.425.005zm-2.73 12.873c0 1.595.005 3.19-.004 4.787 0 .27.07.416.368.411 1.052-.015 2.105-.019 3.158-.033.115 0 .252-.014.336-.077.102-.077.222-.213.223-.324.007-2.473 0-4.946-.008-7.42 0-.67.005-1.34 0-2.011-.004-.458-.024-.471-.47-.471h-3.122c-.473 0-.475 0-.475.458-.004 1.56-.006 3.12-.006 4.68zm4.492-8.25c.005-1.35-1.005-2.3-2.441-2.3-1.474 0-2.523.96-2.521 2.31 0 1.331 1.08 2.31 2.537 2.306 1.426-.006 2.42-.954 2.424-2.316h.001z"/>
        <path d="M31.98 30c-.5-.744-.943-1.45-1.435-2.122-2.14-2.92-4.29-5.833-6.447-8.742-.334-.45-.338-.443.08-.832.342-.316.686-.63 1.01-.963.166-.169.29-.164.478-.035 1.92 1.318 3.85 2.625 5.771 3.942.606.416.59.416 1.053-.164 3.635-4.545 7.698-8.666 12.395-12.152.653-.486 1.34-.929 2.016-1.387.113-.076.252-.158.382-.16.65-.017 1.302-.008 2.063-.008-.287.263-.502.463-.72.662-2.58 2.367-4.832 5.022-6.978 7.77-3.44 4.407-6.517 9.059-9.43 13.818-.065.11-.139.215-.238.373zM9.994 11.331c0-.323-.015-.647.01-.968.006-.084.136-.23.206-.228.393.011.797.013 1.176.103.635.153.942.606.908 1.219-.033.58-.458 1.04-1.088 1.129-.31.045-.627.033-.942.047-.214.01-.28-.096-.273-.298.012-.332.003-.67.003-1.004zM52.826 16.55l.804.24c-.045.2-.132.39-.255.554a1.105 1.105 0 0 1-.433.337 1.644 1.644 0 0 1-.658.114c-.27.01-.54-.038-.79-.139a1.244 1.244 0 0 1-.53-.486c-.15-.23-.224-.528-.224-.892 0-.483.131-.854.393-1.114.261-.26.631-.388 1.11-.386.374 0 .668.074.882.222.214.149.373.377.477.686l-.81.177a.518.518 0 0 0-.278-.355.586.586 0 0 0-.728.192c-.083.122-.125.313-.126.575 0 .323.05.545.15.666a.598.598 0 0 0 .82.034.902.902 0 0 0 .196-.425zM54.074 14.823h2.457v.625h-1.537v.465h1.429v.595h-1.429v.576h1.585v.662h-2.505z"/>
        <path fill-rule="nonzero" d="M57.087 17.745v-2.922h1.53c.218-.008.438.015.65.07.147.046.275.14.363.265a.818.818 0 0 1-.258 1.18c-.1.055-.21.094-.323.116.085.024.166.06.24.107a.921.921 0 0 1 .146.153c.049.057.092.118.129.182l.445.847H58.97l-.491-.893a.694.694 0 0 0-.166-.225.39.39 0 0 0-.225-.07h-.081v1.186l-.921.004zm.921-1.735h.388c.082-.006.163-.02.243-.04a.241.241 0 0 0 .148-.092.293.293 0 0 0-.033-.386c-.06-.05-.175-.076-.342-.076h-.404v.594z"/>
        <path d="M60.057 14.823h2.79v.722h-.937v2.2h-.917v-2.2h-.936zM63.3 14.823h.92v2.922h-.92zM64.883 14.823h2.27v.628h-1.349v.51h1.152v.59h-1.152v1.194h-.921zM67.683 14.823h.92v2.922h-.92zM69.26 14.823h2.456v.625H70.18v.465h1.429v.595h-1.43v.576h1.586v.662h-2.505z"/>
        <path fill-rule="nonzero" d="M72.271 14.824h1.362a1.65 1.65 0 0 1 .652.108c.16.068.3.174.41.309.11.138.19.297.235.468.049.184.072.375.07.565 0 .312-.036.555-.108.727-.067.164-.17.312-.301.432a.986.986 0 0 1-.414.232c-.178.05-.362.077-.547.08h-1.359v-2.921zm.919.661v1.596h.224c.14.009.28-.013.41-.063a.426.426 0 0 0 .19-.22c.047-.103.07-.272.07-.506 0-.31-.05-.522-.154-.636-.102-.114-.273-.171-.51-.171h-.23zM51.191 6.165h3.695c.729 0 1.317.097 1.766.292.434.184.816.471 1.111.836.299.375.516.807.638 1.27.133.5.2 1.015.197 1.532 0 .846-.098 1.502-.293 1.969a3.26 3.26 0 0 1-.817 1.171 2.663 2.663 0 0 1-1.123.629c-.482.135-.98.208-1.482.216H51.19V6.165zm2.487 1.792v4.323h.61c.52 0 .89-.057 1.11-.17.22-.113.391-.311.515-.594.125-.282.187-.74.187-1.374 0-.84-.14-1.413-.421-1.722-.281-.309-.742-.464-1.384-.465l-.617.002z"/>
        <path d="M59.47 11.461l2.37-.145c.051.378.156.666.313.864.256.32.622.48 1.098.48.355 0 .629-.082.82-.245a.737.737 0 0 0 .29-.57.72.72 0 0 0-.275-.55c-.183-.163-.608-.316-1.274-.46-1.093-.24-1.872-.56-2.337-.96a1.932 1.932 0 0 1-.702-1.527 2.05 2.05 0 0 1 .36-1.153c.24-.362.6-.646 1.082-.853.482-.206 1.141-.31 1.979-.31 1.03 0 1.814.187 2.353.564.539.376.86.974.963 1.795l-2.344.135c-.062-.356-.193-.615-.392-.777-.2-.163-.475-.244-.827-.243-.29 0-.507.06-.653.18a.556.556 0 0 0-.22.44.436.436 0 0 0 .181.34c.117.105.395.202.835.292 1.087.231 1.866.464 2.336.7.47.234.812.527 1.027.877.215.353.327.759.321 1.17.002.5-.147.99-.428 1.405-.294.433-.71.771-1.197.971-.513.221-1.159.332-1.938.333-1.37 0-2.318-.26-2.845-.778-.527-.519-.825-1.177-.895-1.975zM67.591 11.461l2.367-.145c.052.378.156.666.313.864.257.32.623.48 1.098.48.355 0 .629-.082.821-.245a.738.738 0 0 0 .288-.57.718.718 0 0 0-.274-.55c-.184-.163-.608-.316-1.274-.46-1.091-.241-1.869-.561-2.334-.96a1.93 1.93 0 0 1-.701-1.527 2.05 2.05 0 0 1 .359-1.153c.239-.362.6-.646 1.082-.853.482-.206 1.141-.31 1.98-.31 1.029 0 1.813.187 2.352.564.539.376.86.974.964 1.795l-2.345.135c-.062-.356-.193-.615-.393-.777-.2-.163-.475-.244-.826-.243-.29 0-.507.06-.654.18a.556.556 0 0 0-.22.44.436.436 0 0 0 .182.34c.117.105.395.202.834.292 1.088.231 1.866.464 2.337.7.471.234.813.527 1.027.877.215.353.326.759.32 1.17.004.5-.146.99-.427 1.405-.294.433-.71.771-1.197.971-.512.221-1.159.332-1.939.333-1.369 0-2.317-.26-2.844-.778-.527-.519-.826-1.177-.896-1.975z"/>
    </g>
</svg>
